<svg version="1.0" xmlns="http://www.w3.org/2000/svg" width="826.667" height="829.333"
    viewBox="0 0 620 622">
    <path
        d="M288.5 17c-69.7 5.1-133.3 33.6-182.9 81.9-48.4 47.2-77.5 105.8-86.2 173.8-2.2 17.3-2.2 51.3 0 68.6 8.7 68 37.8 126.5 86.2 173.8 46.3 45 102.7 72.1 168.1 80.5 17.3 2.2 51.3 2.2 68.6 0 65.4-8.4 121.8-35.5 168.1-80.5 48.4-47.3 77.5-105.8 86.2-173.8 2.2-17.3 2.2-51.3 0-68.6-8.4-65.4-35.5-121.8-80.5-168.1-41.5-42.5-91.1-69.8-149-82-23.8-5.1-55.6-7.3-78.6-5.6zM392 121.7c0 .5-2.4 1.8-5.3 3.1-7.3 3.1-18.8 10.7-26.9 17.5-17.4 14.8-31.9 42-36.4 68.2-2.2 12.5-1.4 36.7 1.5 48.5 3 11.7 9.3 26 15.8 35.8 3 4.6 5.2 8.6 4.8 9-.4.4-36.4.9-80 1.1l-79.3.3-4.1-2.3c-5-2.8-15.6-17.4-21.2-29.3-5.9-12.6-7.9-21.8-8.6-38.4-1.4-35.3 8.5-63.2 30.9-86.7 14.4-15.3 29.9-23.7 48.3-26.4 7.3-1.1 160.5-1.4 160.5-.4zm54.9 23.3c5 1.8 9.1 3.7 9.1 4.1 0 .5-2.9 3.9-6.4 7.6-10.5 11.2-19.6 30.4-23.2 48.9-4.3 22.2-.3 51 9.8 70.9 3 5.8 10.2 15.8 15.9 22l3.9 4.2-5.8 3.1c-8 4.3-16.8 6.2-28.7 6.2-26.8 0-53.4-14-63-33.2-1.9-3.9-3.5-7.7-3.5-8.4 0-1 4-1.3 17.6-1.6 16-.3 17.7-.5 19-2.2 1.6-2.3 2-15.7.4-18.6-1.7-3.2-6.7-4-25.7-4H348l-1-2.5c-1.2-3.1-1.4-16.9-.5-25.3l.8-6.2H368c24.6 0 24.7-.1 25.7-9.2.7-6.7-.1-10.2-2.7-12.8-1.8-1.8-3.4-2-17.3-2-8.5 0-15.7-.3-16-.6-1.4-1.4 6.2-13.3 12.8-20 21.4-21.8 50.6-29.6 76.4-20.4zM195.5 324.1c2.8 1.5 7.3 3.1 10 3.7 3.2.7 34.8 1.3 89.5 1.6l84.5.5 7.5 2.5c9.5 3.1 20.4 4.6 32.9 4.6 6.2 0 10.3.4 11.4 1.2 1.5 1.2 1.6 9.7 1.9 96.5.2 52.4.2 95.3-.1 95.3-.4 0-7.1-7.5-15.1-16.6l-14.5-16.5-4 4.3c-2.2 2.4-6.5 7.1-9.5 10.6l-5.5 6.3-9-10.6c-4.9-5.8-9.2-10.5-9.6-10.5-.3 0-4.6 4.8-9.5 10.6l-8.8 10.6-4.8-5.3c-2.6-3-6.6-7.7-9-10.6-2.4-2.9-4.6-5.2-4.9-5.3-.5 0-9.1 9.8-16.4 18.7l-2.1 2.5-8.8-10.6c-4.8-5.8-9-10.6-9.4-10.6-.4 0-4.5 4.5-9.2 10-4.7 5.5-8.9 9.9-9.5 9.9-.5 0-4.8-4.5-9.5-9.9-4.7-5.5-8.8-9.9-9.1-10-.3 0-4.7 4.7-9.6 10.5l-9.1 10.4-8.7-10.2c-4.9-5.6-9.1-10.2-9.5-10.2-.4 0-6.8 7.1-14.4 15.7-7.5 8.7-13.9 15.8-14.2 15.8-.2 0-.4-46.8-.4-104.1 0-57.2.3-103.9.8-103.7.4.2 3 1.5 5.7 2.9z" />
    <path
        d="M232.4 369.4c-3.5 1.5-4.4 3.8-4.4 10.9 0 6.2 2.1 10.2 6.1 11.6 4.3 1.5 147.8 1.5 153.1.1 4.9-1.4 5.8-3.3 5.8-12 0-6.2-.3-7.4-2.5-9.5l-2.4-2.5h-76.3c-61.8.1-76.9.3-79.4 1.4zM232.4 429c-3 1.2-4.8 7.1-4.1 13.8.7 6.7 2.1 8.3 8.4 9.3 6.8 1.1 144.9 1.1 149.8-.1 5.5-1.2 6.5-3.1 6.5-11.7 0-6.5-.3-7.7-2.5-9.8l-2.4-2.5-76.8.1c-42.2 0-77.8.4-78.9.9z" />
</svg>